# Blender 5.0.0
# www.blender.org
o obj_0
v 0.904493 0.100000 0.899691
v 0.904493 0.000000 0.899691
v 0.904493 -0.000000 -0.900310
v 0.904493 0.100000 -0.900310
v -0.895507 0.100000 -0.900310
v -0.895507 -0.000000 -0.900310
v -0.895507 0.000000 0.899691
v -0.663687 0.100000 -0.668490
v -0.663687 0.100000 0.667871
v -0.895507 0.100000 0.899691
v 0.100013 1.899801 -0.095830
v 0.100013 1.899801 0.095210
v 0.672673 0.100000 -0.668490
v -0.091027 1.899801 0.095210
v -0.091027 1.899801 -0.095830
v 0.672673 0.100000 0.667871
v -0.472801 0.699934 -0.477603
v -0.281914 1.299867 -0.286717
v 0.290900 1.299867 -0.286717
v 0.481786 0.699934 -0.477603
v 0.290900 1.299867 0.286097
v 0.481786 0.699934 0.476984
v -0.281914 1.299867 0.286097
v -0.472801 0.699934 0.476984
vn 1.0000 -0.0000 -0.0000
vn -1.0000 -0.0000 -0.0000
vn -0.0000 1.0000 -0.0000
vn -0.0000 -1.0000 -0.0000
vn -0.0000 -0.0000 1.0000
vn -0.0000 -0.0000 -1.0000
vn -0.0000 0.3032 -0.9529
vn 0.9529 0.3032 -0.0000
vn -0.0000 0.3032 0.9529
vn -0.9529 0.3032 -0.0000
vt 0.957413 -0.000000
vt 0.978706 -0.000000
vt 0.978706 0.385301
vt 0.957413 0.385301
vt 0.978706 0.770602
vt 0.957413 0.770602
vt 0.385301 0.000000
vt 0.335678 0.049622
vt 0.049623 0.049622
vt 0.000000 0.000000
vt 0.000000 0.385301
vt 0.335678 0.335678
vt 0.385301 0.385301
vt 0.049622 0.335678
vt 0.000000 0.770602
vt 0.000000 0.385301
vt 0.385301 0.385301
vt 0.385301 0.770602
vt 1.000000 0.385301
vt 0.978706 0.000000
vt 1.000000 0.000000
vt 0.978706 0.385301
vt 1.000000 0.770602
vt 0.978706 0.385301
vt 1.000000 0.385301
vt 0.978706 0.770602
vt 0.040893 0.770602
vt 0.040893 0.811495
vt 0.000000 0.811495
vt 0.000000 0.770602
vt 0.478765 0.405206
vt 0.798046 0.405206
vt 0.861892 0.204546
vt 0.414919 0.204546
vt 0.478765 0.405206
vt 0.414919 0.204546
vt 0.861892 0.204546
vt 0.798046 0.405206
vt 0.861892 0.204546
vt 0.798046 0.405206
vt 0.606457 0.806526
vt 0.670354 0.806526
vt 0.734200 0.605866
vt 0.542611 0.605866
vt 0.670354 0.806526
vt 0.734200 0.605866
vt 0.542611 0.605866
s 0
f 1/1/1 2/2/1 3/3/1
f 1/1/1 3/3/1 4/4/1
f 7/5/2 10/6/2 6/3/2
f 5/4/2 6/3/2 10/6/2
f 4/7/3 13/8/3 16/9/3
f 4/7/3 16/9/3 1/10/3
f 10/11/3 8/12/3 5/13/3
f 13/8/3 4/7/3 8/12/3
f 5/13/3 8/12/3 4/7/3
f 8/12/3 10/11/3 9/14/3
f 10/11/3 1/10/3 9/14/3
f 16/9/3 9/14/3 1/10/3
f 2/15/4 7/16/4 6/17/4
f 2/15/4 6/17/4 3/18/4
f 2/19/5 10/20/5 7/21/5
f 1/22/5 10/20/5 2/19/5
f 6/23/6 4/24/6 3/25/6
f 5/26/6 4/24/6 6/23/6
f 12/27/3 11/28/3 15/29/3
f 12/27/3 15/29/3 14/30/3
f 17/31/7 20/32/7 13/33/7 8/34/7
f 20/32/8 22/35/8 16/36/8 13/37/8
f 22/38/9 24/35/9 9/36/9 16/39/9
f 24/35/10 17/40/10 8/37/10 9/36/10
f 14/41/10 15/42/10 18/43/10 23/44/10
f 23/44/10 18/43/10 17/40/10 24/35/10
f 12/45/9 14/41/9 23/44/9 21/46/9
f 21/46/9 23/44/9 24/35/9 22/38/9
f 11/42/8 12/41/8 21/44/8 19/46/8
f 19/46/8 21/44/8 22/35/8 20/32/8
f 15/41/7 11/45/7 19/46/7 18/47/7
f 18/47/7 19/46/7 20/32/7 17/31/7
