# Blender 5.0.1
# www.blender.org
o obj_0
v 0.904493 0.100000 0.899691
v 0.904493 0.000000 0.899691
v 0.904493 -0.000000 -0.900310
v 0.904493 0.100000 -0.900310
v -0.895507 0.100000 -0.900310
v -0.895507 -0.000000 -0.900310
v -0.895507 0.000000 0.899691
v -0.663687 0.100000 -0.668490
v -0.663687 0.100000 0.667871
v -0.895507 0.100000 0.899691
v 0.100013 1.899801 -0.095830
v 0.100013 1.899801 0.095210
v 0.672673 0.100000 -0.668490
v -0.091027 1.899801 0.095210
v -0.091027 1.899801 -0.095830
v 0.672673 0.100000 0.667871
v -0.472801 0.699934 -0.477603
v -0.281914 1.299867 -0.286717
v 0.290900 1.299867 -0.286717
v 0.481786 0.699934 -0.477603
v 0.290900 1.299867 0.286097
v 0.481786 0.699934 0.476984
v -0.281914 1.299867 0.286097
v -0.472801 0.699934 0.476984
vn -1.0000 -0.0000 -0.0000
vn 1.0000 -0.0000 -0.0000
vn -0.0000 -1.0000 -0.0000
vn -0.0000 1.0000 -0.0000
vn -0.0000 -0.0000 -1.0000
vn -0.0000 -0.0000 1.0000
vn -0.0000 -0.3032 0.9529
vn -0.9529 -0.3032 -0.0000
vn -0.0000 -0.3032 -0.9529
vn 0.9529 -0.3032 -0.0000
vt 0.978706 0.385301
vt 0.957413 -0.000000
vt 0.978706 -0.000000
vt 0.957413 0.385301
vt 0.978706 0.770602
vt 0.957413 0.770602
vt 0.049623 0.049622
vt 0.385301 0.000000
vt 0.335678 0.049622
vt 0.000000 0.000000
vt 0.385301 0.385301
vt 0.000000 0.385301
vt 0.335678 0.335678
vt 0.049622 0.335678
vt 0.000000 0.770602
vt 0.385301 0.770602
vt 1.000000 0.000000
vt 1.000000 0.385301
vt 1.000000 0.770602
vt 0.000000 0.811495
vt 0.040893 0.770602
vt 0.040893 0.811495
vt 0.426161 0.263842
vt 0.671357 0.395764
vt 0.385301 0.395764
vt 0.385301 0.791527
vt 0.630496 0.659606
vt 0.671357 0.791527
vt 0.916552 0.263842
vt 0.957413 0.395764
vt 0.712217 0.659606
vt 0.957413 0.791527
vt 0.793938 0.395764
vt 0.875692 0.527685
vt 0.753078 0.527685
vt 0.916552 0.659606
vt 0.793938 0.000000
vt 0.875692 0.131921
vt 0.753078 0.131921
vt 0.712217 0.263842
vt 0.507882 0.395764
vt 0.589636 0.527685
vt 0.467022 0.527685
vt 0.426161 0.659606
vt 0.507882 0.000000
vt 0.589636 0.131921
vt 0.467022 0.131921
vt 0.630496 0.263842
vt 0.834831 0.395764
vt 0.834831 0.000000
vt 0.548775 0.395764
vt 0.548775 0.000000
s 1
f 1/1/1 3/2/1 2/3/1
f 1/4/1 4/2/1 3/1/1
f 7/1/2 6/5/2 10/6/2
f 5/6/2 10/4/2 6/1/2
f 4/7/3 16/8/3 13/9/3
f 4/10/3 1/8/3 16/7/3
f 10/11/3 5/12/3 8/13/3
f 13/13/3 8/9/3 4/8/3
f 5/8/3 4/11/3 8/13/3
f 8/14/3 9/13/3 10/12/3
f 10/14/3 9/12/3 1/10/3
f 16/10/3 1/7/3 9/14/3
f 2/11/4 6/15/4 7/12/4
f 2/16/4 3/15/4 6/11/4
f 2/17/5 7/18/5 10/3/5
f 1/18/5 2/1/5 10/3/5
f 6/18/6 3/19/6 4/1/6
f 5/19/6 6/5/6 4/1/6
f 12/20/3 15/21/3 11/22/3
f 12/15/3 14/21/3 15/20/3
f 8/23/7 20/24/7 17/25/7
f 20/26/8 16/27/8 22/28/8
f 22/24/9 9/29/9 24/30/9
f 9/31/10 17/32/10 24/28/10
f 23/33/10 15/34/10 14/35/10
f 23/31/10 17/34/10 18/36/10
f 21/37/9 14/38/9 12/39/9
f 22/39/9 23/29/9 21/40/9
f 19/41/8 12/42/8 11/43/8
f 20/43/8 21/27/8 19/44/8
f 18/45/7 11/46/7 15/47/7
f 18/23/7 20/46/7 19/48/7
f 8/23/7 13/48/7 20/24/7
f 20/26/8 13/44/8 16/27/8
f 22/24/9 16/40/9 9/29/9
f 9/31/10 8/36/10 17/32/10
f 23/33/10 18/49/10 15/34/10
f 23/31/10 24/35/10 17/34/10
f 21/37/9 23/50/9 14/38/9
f 22/39/9 24/38/9 23/29/9
f 19/41/8 21/51/8 12/42/8
f 20/43/8 22/42/8 21/27/8
f 18/45/7 19/52/7 11/46/7
f 18/23/7 17/47/7 20/46/7
